<svg xmlns="http://www.w3.org/2000/svg" xmlns:xlink="http://www.w3.org/1999/xlink" width="352" height="100" viewBox="0 0 264 75"><clipPath id="a"><path transform="scale(.24)" d="M0 0h1100v343.75H0z" fill-rule="evenodd"/></clipPath><g clip-path="url(#a)"><path d="M0 0h264v82.5H0z" fill="#fff"/></g><clipPath id="b"><path transform="scale(.24)" d="M0 0h1100v312.5H0z" fill-rule="evenodd"/></clipPath><g clip-path="url(#b)"><path d="M0 0h264v75H0z" fill="#fff"/></g><clipPath id="c"><path transform="scale(.24)" d="M0 0h1100v312.5H0z" fill-rule="evenodd"/></clipPath><g clip-path="url(#c)"><path d="M0 0h264v75H0z" fill="#fff"/></g><clipPath id="d"><path transform="scale(.24)" d="M0 0h1100v312.5H0z" fill-rule="evenodd"/></clipPath><g clip-path="url(#d)"><symbol id="e"><path d="M.013 0a.014.014 0 0 0-.01.004C0 .007 0 .01 0 .015l.082.67c0 .005.002.008.005.011A.017.017 0 0 0 .098.7H.29C.349.7.396.684.43.653A.156.156 0 0 0 .485.529L.482.5.445.2A.214.214 0 0 0 .32.025.264.264 0 0 0 .204 0H.013m.189.166C.2.163.202.161.206.161L.22.162c.01 0 .02.006.028.015a.07.07 0 0 1 .017.036l.033.275v.011C.299.512.297.521.29.528a.03.03 0 0 1-.024.011H.252C.248.539.247.537.247.534L.202.166z"/></symbol><symbol id="f"><path d="M.013 0a.014.014 0 0 0-.01.004C0 .007 0 .01 0 .015l.082.67c0 .005.002.008.005.011A.017.017 0 0 0 .098.7h.155C.257.7.26.699.262.696.264.693.265.69.265.685L.183.015A.016.016 0 0 0 .177.004.014.014 0 0 0 .167 0H.013z"/></symbol><symbol id="g"><path d="M.186 0A.199.199 0 0 0 .05.044.152.152 0 0 0 0 .163c0 .005 0 .013.002.025l.004.031c0 .005.002.008.005.011a.017.017 0 0 0 .011.004h.152C.178.234.181.233.183.23.186.227.187.224.186.219L.184.197A.04.04 0 0 1 .188.171a.02.02 0 0 1 .018-.01c.009 0 .016.004.022.011a.041.041 0 0 1 .009.027c0 .01-.005.02-.015.031a.492.492 0 0 1-.055.049 1.185 1.185 0 0 0-.066.058A.25.25 0 0 0 .056.4a.19.19 0 0 0-.019.086c0 .006 0 .016.002.031A.22.22 0 0 0 .27.716.19.19 0 0 0 .405.67a.16.16 0 0 0 .05-.124C.455.54.455.53.453.517L.45.495A.016.016 0 0 0 .444.484.014.014 0 0 0 .434.48H.283a.014.014 0 0 0-.01.004C.271.487.27.49.271.495l.003.026c0 .01-.001.018-.006.024a.02.02 0 0 1-.018.01.028.028 0 0 1-.023-.012.052.052 0 0 1-.009-.032C.218.5.223.488.232.476a.385.385 0 0 1 .052-.05C.318.397.344.374.362.356A.195.195 0 0 0 .404.298.153.153 0 0 0 .42.227.22.22 0 0 0 .342.054.231.231 0 0 0 .186 0z"/></symbol><symbol id="h"><path d="M.188 0A.193.193 0 0 0 .05.048.173.173 0 0 0 0 .179c0 .007 0 .018.002.034l.036.292a.235.235 0 0 0 .077.154.235.235 0 0 0 .161.057.193.193 0 0 0 .138-.048.168.168 0 0 0 .051-.13c0-.006 0-.017-.002-.033L.462.5A.02.02 0 0 0 .456.488a.014.014 0 0 0-.01-.004L.292.479c-.01 0-.014.005-.013.014l.003.025c.001.011 0 .02-.005.027a.023.023 0 0 1-.02.01.033.033 0 0 1-.024-.01.048.048 0 0 1-.011-.027L.183.197A.04.04 0 0 1 .187.171C.192.164.199.161.208.161c.01 0 .017.003.023.009.007.007.01.016.012.027l.003.027c0 .005.002.008.005.01a.017.017 0 0 0 .011.004L.415.233C.42.233.423.231.425.228.428.225.429.222.428.217L.427.213A.233.233 0 0 0 .188 0z"/></symbol><symbol id="i"><path d="M.191 0a.196.196 0 0 0-.14.048A.174.174 0 0 0 0 .18c0 .007 0 .018.002.034l.036.288a.24.24 0 0 0 .077.156.24.24 0 0 0 .164.058.192.192 0 0 0 .139-.049A.17.17 0 0 0 .47.536C.47.529.47.518.468.502L.433.214A.238.238 0 0 0 .355.058.24.24 0 0 0 .191 0m.02.161c.01 0 .018.004.025.012A.06.06 0 0 1 .25.206L.287.51a.055.055 0 0 1-.005.033.024.024 0 0 1-.022.012.035.035 0 0 1-.027-.012A.06.06 0 0 1 .221.51L.184.206A.047.047 0 0 1 .183.195.04.04 0 0 1 .19.17.027.027 0 0 1 .211.161z"/></symbol><symbol id="j"><path d="M.186 0A.186.186 0 0 0 .05.049.176.176 0 0 0 0 .181C0 .188 0 .2.002.216l.059.477c0 .005.002.008.005.011a.017.017 0 0 0 .011.004h.154C.235.708.238.707.24.704.243.701.244.698.243.693L.183.198A.042.042 0 0 1 .187.171c.004-.007.01-.01.019-.01s.016.003.021.01c.006.007.01.016.011.027l.061.495c0 .005.002.008.005.011a.015.015 0 0 0 .011.004h.153c.005 0 .008-.001.01-.004C.481.701.482.698.481.693L.422.216a.263.263 0 0 0-.04-.113.222.222 0 0 0-.083-.076A.238.238 0 0 0 .186 0z"/></symbol><symbol id="k"><path d="M.364.685c0 .005.002.008.005.011A.019.019 0 0 0 .38.7h.15C.537.7.54.699.542.696.545.693.546.69.546.685L.462.015A.019.019 0 0 0 .457.004.015.015 0 0 0 .446 0H.273C.265 0 .26.004.259.013L.22.32C.22.322.22.323.219.323.217.323.217.322.217.32L.18.015A.016.016 0 0 0 .175.004.014.014 0 0 0 .165 0H.013a.014.014 0 0 0-.01.004C0 .007 0 .01 0 .015l.082.67c0 .005.002.008.005.011A.017.017 0 0 0 .098.7H.27C.278.7.282.696.284.687L.323.378c0-.002 0-.003.002-.002l.003.003.036.306z"/></symbol><symbol id="l"><path d="M.454.7C.458.7.46.699.463.696.465.693.466.69.466.685L.45.554A.019.019 0 0 0 .445.543.015.015 0 0 0 .434.539H.318C.314.539.313.537.313.534L.249.015A.019.019 0 0 0 .244.004.015.015 0 0 0 .233 0H.08a.015.015 0 0 0-.011.004C.067.007.066.01.067.015L.13.534C.13.537.129.539.126.539H.014a.015.015 0 0 0-.011.004C0 .546 0 .549 0 .554l.016.131c0 .005.002.008.005.011A.019.019 0 0 0 .034.7h.42z"/></symbol><use xlink:href="#e" transform="matrix(53.54464 0 0 -53.54464 1.997 54.588)" fill="#d32f23" fill-opacity=".42"/><use xlink:href="#f" transform="matrix(53.54464 0 0 -53.54464 27.105 54.588)" fill="#d32f23" fill-opacity=".42"/><use xlink:href="#g" transform="matrix(53.54464 0 0 -53.54464 40.364 55.017)" fill="#d32f23" fill-opacity=".42"/><use xlink:href="#h" transform="matrix(53.54464 0 0 -53.54464 64.456 55.017)" fill="#d32f23" fill-opacity=".42"/><use xlink:href="#i" transform="matrix(53.54464 0 0 -53.54464 89.19 55.017)" fill="#d32f23" fill-opacity=".42"/><use xlink:href="#j" transform="matrix(53.54464 0 0 -53.54464 114.512 55.017)" fill="#d32f23" fill-opacity=".42"/><use xlink:href="#k" transform="matrix(53.54464 0 0 -53.54464 138.46 54.588)" fill="#d32f23" fill-opacity=".42"/><use xlink:href="#l" transform="matrix(53.54464 0 0 -53.54464 168.977 54.588)" fill="#d32f23" fill-opacity=".42"/><use xlink:href="#g" transform="matrix(53.54464 0 0 -53.54464 192.568 55.017)" fill="#d32f23" fill-opacity=".42"/><use xlink:href="#e" transform="matrix(53.54464 0 0 -53.54464 .405 53.155)" fill="#fff"/><use xlink:href="#f" transform="matrix(53.54464 0 0 -53.54464 25.513 53.155)" fill="#fff"/><use xlink:href="#g" transform="matrix(53.54464 0 0 -53.54464 38.773 53.583)" fill="#fff"/><use xlink:href="#h" transform="matrix(53.54464 0 0 -53.54464 62.864 53.583)" fill="#fff"/><use xlink:href="#i" transform="matrix(53.54464 0 0 -53.54464 87.598 53.583)" fill="#fff"/><use xlink:href="#j" transform="matrix(53.54464 0 0 -53.54464 112.92 53.583)" fill="#fff"/><use xlink:href="#k" transform="matrix(53.54464 0 0 -53.54464 136.869 53.155)" fill="#fff"/><use xlink:href="#l" transform="matrix(53.54464 0 0 -53.54464 167.385 53.155)" fill="#fff"/><use xlink:href="#g" transform="matrix(53.54464 0 0 -53.54464 190.976 53.583)" fill="#fff"/><symbol id="m"><path d="M.071 0A.07.07 0 0 0 .02.02.07.07 0 0 0 0 .071c0 .02.007.038.02.051a.07.07 0 0 0 .051.02c.02 0 .037-.007.05-.02a.07.07 0 0 0 .02-.051.07.07 0 0 0-.02-.051.068.068 0 0 0-.05-.02z"/></symbol><symbol id="n"><path d="M.012 0a.015.015 0 0 0-.009.003A.015.015 0 0 0 0 .012v.676a.01.01 0 0 0 .003.008A.012.012 0 0 0 .012.7h.092A.01.01 0 0 0 .112.696.01.01 0 0 0 .116.688V.012A.012.012 0 0 0 .112.003.01.01 0 0 0 .104 0H.012z"/></symbol><symbol id="o"><path d="M.191 0a.19.19 0 0 0-.139.052A.187.187 0 0 0 0 .19v.336c0 .057.017.103.052.138a.19.19 0 0 0 .139.052A.19.19 0 0 0 .33.664.185.185 0 0 0 .383.526V.19A.185.185 0 0 0 .33.052.19.19 0 0 0 .191 0m0 .1C.214.1.232.108.246.123a.09.09 0 0 1 .021.062v.346a.087.087 0 0 1-.021.061.07.07 0 0 1-.055.024.07.07 0 0 1-.055-.024.09.09 0 0 1-.02-.061V.185c0-.025.007-.046.02-.062A.071.071 0 0 1 .191.1z"/></symbol><use xlink:href="#m" transform="matrix(53.5111 0 0 -53.5111 217.318 53.937)" fill="#d32f23" fill-opacity=".42"/><use xlink:href="#n" transform="matrix(53.5111 0 0 -53.5111 229.625 53.83)" fill="#d32f23" fill-opacity=".42"/><use xlink:href="#o" transform="matrix(53.5111 0 0 -53.5111 240.969 54.258)" fill="#d32f23" fill-opacity=".42"/><use xlink:href="#m" transform="matrix(53.5111 0 0 -53.5111 215.727 52.505)" fill="#ff5757"/><use xlink:href="#n" transform="matrix(53.5111 0 0 -53.5111 228.034 52.398)" fill="#ff5757"/><use xlink:href="#o" transform="matrix(53.5111 0 0 -53.5111 239.378 52.826)" fill="#ff5757"/></g></svg>